<mxfile host="app.diagrams.net" modified="2021-09-06T19:59:25.822Z" agent="5.0 (Windows NT 10.0; Win64; x64) AppleWebKit/537.36 (KHTML, like Gecko) Chrome/92.0.4515.159 Safari/537.36" etag="W3YByxy5AMVhFq99MqLV" version="15.0.6" type="github">
  <diagram id="C5RBs43oDa-KdzZeNtuy" name="Page-1">
    <mxGraphModel dx="1422" dy="737" grid="1" gridSize="10" guides="1" tooltips="1" connect="1" arrows="1" fold="1" page="1" pageScale="1" pageWidth="827" pageHeight="1169" math="0" shadow="0">
      <root>
        <mxCell id="WIyWlLk6GJQsqaUBKTNV-0" />
        <mxCell id="WIyWlLk6GJQsqaUBKTNV-1" parent="WIyWlLk6GJQsqaUBKTNV-0" />
        <mxCell id="TW3MiaDg9W0NcHxh0AQp-19" style="edgeStyle=orthogonalEdgeStyle;rounded=0;orthogonalLoop=1;jettySize=auto;html=1;exitX=0.5;exitY=1;exitDx=0;exitDy=0;" edge="1" parent="WIyWlLk6GJQsqaUBKTNV-1" source="TW3MiaDg9W0NcHxh0AQp-21" target="TW3MiaDg9W0NcHxh0AQp-23">
          <mxGeometry relative="1" as="geometry" />
        </mxCell>
        <mxCell id="TW3MiaDg9W0NcHxh0AQp-20" style="edgeStyle=orthogonalEdgeStyle;rounded=0;orthogonalLoop=1;jettySize=auto;html=1;exitX=0.5;exitY=1;exitDx=0;exitDy=0;" edge="1" parent="WIyWlLk6GJQsqaUBKTNV-1" source="TW3MiaDg9W0NcHxh0AQp-21" target="TW3MiaDg9W0NcHxh0AQp-37">
          <mxGeometry relative="1" as="geometry">
            <Array as="points">
              <mxPoint x="230" y="130" />
              <mxPoint x="310" y="130" />
            </Array>
          </mxGeometry>
        </mxCell>
        <mxCell id="TW3MiaDg9W0NcHxh0AQp-21" value="Launch Program" style="rounded=1;whiteSpace=wrap;html=1;" vertex="1" parent="WIyWlLk6GJQsqaUBKTNV-1">
          <mxGeometry x="90" y="50" width="280" height="60" as="geometry" />
        </mxCell>
        <mxCell id="TW3MiaDg9W0NcHxh0AQp-22" style="edgeStyle=orthogonalEdgeStyle;rounded=0;orthogonalLoop=1;jettySize=auto;html=1;exitX=0.5;exitY=1;exitDx=0;exitDy=0;entryX=0.5;entryY=0;entryDx=0;entryDy=0;" edge="1" parent="WIyWlLk6GJQsqaUBKTNV-1" source="TW3MiaDg9W0NcHxh0AQp-23" target="TW3MiaDg9W0NcHxh0AQp-26">
          <mxGeometry relative="1" as="geometry" />
        </mxCell>
        <mxCell id="TW3MiaDg9W0NcHxh0AQp-23" value="Start camera stream" style="rounded=0;whiteSpace=wrap;html=1;" vertex="1" parent="WIyWlLk6GJQsqaUBKTNV-1">
          <mxGeometry x="90" y="140" width="120" height="60" as="geometry" />
        </mxCell>
        <mxCell id="TW3MiaDg9W0NcHxh0AQp-24" style="edgeStyle=orthogonalEdgeStyle;rounded=0;orthogonalLoop=1;jettySize=auto;html=1;exitX=0.5;exitY=1;exitDx=0;exitDy=0;entryX=0.5;entryY=0;entryDx=0;entryDy=0;" edge="1" parent="WIyWlLk6GJQsqaUBKTNV-1" source="TW3MiaDg9W0NcHxh0AQp-26" target="TW3MiaDg9W0NcHxh0AQp-28">
          <mxGeometry relative="1" as="geometry" />
        </mxCell>
        <mxCell id="TW3MiaDg9W0NcHxh0AQp-25" style="edgeStyle=orthogonalEdgeStyle;rounded=0;orthogonalLoop=1;jettySize=auto;html=1;exitX=1;exitY=0.5;exitDx=0;exitDy=0;" edge="1" parent="WIyWlLk6GJQsqaUBKTNV-1" source="TW3MiaDg9W0NcHxh0AQp-26" target="TW3MiaDg9W0NcHxh0AQp-35">
          <mxGeometry relative="1" as="geometry" />
        </mxCell>
        <mxCell id="TW3MiaDg9W0NcHxh0AQp-26" value="Detect face in frame (bounding box)" style="rounded=0;whiteSpace=wrap;html=1;" vertex="1" parent="WIyWlLk6GJQsqaUBKTNV-1">
          <mxGeometry x="167" y="240" width="120" height="60" as="geometry" />
        </mxCell>
        <mxCell id="TW3MiaDg9W0NcHxh0AQp-27" style="edgeStyle=orthogonalEdgeStyle;rounded=0;orthogonalLoop=1;jettySize=auto;html=1;exitX=0.5;exitY=1;exitDx=0;exitDy=0;entryX=0.5;entryY=0;entryDx=0;entryDy=0;" edge="1" parent="WIyWlLk6GJQsqaUBKTNV-1" source="TW3MiaDg9W0NcHxh0AQp-28" target="TW3MiaDg9W0NcHxh0AQp-30">
          <mxGeometry relative="1" as="geometry" />
        </mxCell>
        <mxCell id="TW3MiaDg9W0NcHxh0AQp-28" value="Detect facial landmarks (2D)" style="rounded=0;whiteSpace=wrap;html=1;" vertex="1" parent="WIyWlLk6GJQsqaUBKTNV-1">
          <mxGeometry x="167" y="330" width="120" height="60" as="geometry" />
        </mxCell>
        <mxCell id="TW3MiaDg9W0NcHxh0AQp-29" style="edgeStyle=orthogonalEdgeStyle;rounded=0;orthogonalLoop=1;jettySize=auto;html=1;exitX=1;exitY=0.5;exitDx=0;exitDy=0;" edge="1" parent="WIyWlLk6GJQsqaUBKTNV-1" source="TW3MiaDg9W0NcHxh0AQp-30" target="TW3MiaDg9W0NcHxh0AQp-31">
          <mxGeometry relative="1" as="geometry" />
        </mxCell>
        <mxCell id="TW3MiaDg9W0NcHxh0AQp-30" value="Use nose position to estimate 3D pose" style="rounded=0;whiteSpace=wrap;html=1;" vertex="1" parent="WIyWlLk6GJQsqaUBKTNV-1">
          <mxGeometry x="167" y="420" width="120" height="60" as="geometry" />
        </mxCell>
        <mxCell id="TW3MiaDg9W0NcHxh0AQp-31" value="Save data to file" style="rounded=1;whiteSpace=wrap;html=1;" vertex="1" parent="WIyWlLk6GJQsqaUBKTNV-1">
          <mxGeometry x="327" y="420" width="120" height="60" as="geometry" />
        </mxCell>
        <mxCell id="TW3MiaDg9W0NcHxh0AQp-34" style="edgeStyle=orthogonalEdgeStyle;rounded=0;orthogonalLoop=1;jettySize=auto;html=1;exitX=0.5;exitY=1;exitDx=0;exitDy=0;entryX=0.5;entryY=0;entryDx=0;entryDy=0;" edge="1" parent="WIyWlLk6GJQsqaUBKTNV-1" source="TW3MiaDg9W0NcHxh0AQp-35" target="TW3MiaDg9W0NcHxh0AQp-28">
          <mxGeometry relative="1" as="geometry">
            <Array as="points">
              <mxPoint x="387" y="320" />
              <mxPoint x="227" y="320" />
            </Array>
          </mxGeometry>
        </mxCell>
        <mxCell id="TW3MiaDg9W0NcHxh0AQp-35" value="Crop image size to face bbox" style="rounded=0;whiteSpace=wrap;html=1;fillColor=#ffe6cc;strokeColor=#d79b00;" vertex="1" parent="WIyWlLk6GJQsqaUBKTNV-1">
          <mxGeometry x="327" y="240" width="120" height="60" as="geometry" />
        </mxCell>
        <mxCell id="TW3MiaDg9W0NcHxh0AQp-36" style="edgeStyle=orthogonalEdgeStyle;rounded=0;orthogonalLoop=1;jettySize=auto;html=1;exitX=0.5;exitY=1;exitDx=0;exitDy=0;" edge="1" parent="WIyWlLk6GJQsqaUBKTNV-1" source="TW3MiaDg9W0NcHxh0AQp-37" target="TW3MiaDg9W0NcHxh0AQp-26">
          <mxGeometry relative="1" as="geometry" />
        </mxCell>
        <mxCell id="TW3MiaDg9W0NcHxh0AQp-37" value="Import video file" style="rounded=0;whiteSpace=wrap;html=1;" vertex="1" parent="WIyWlLk6GJQsqaUBKTNV-1">
          <mxGeometry x="250" y="140" width="120" height="60" as="geometry" />
        </mxCell>
      </root>
    </mxGraphModel>
  </diagram>
</mxfile>
